<mxfile host="Electron" modified="2024-05-15T17:39:15.646Z" agent="Mozilla/5.0 (Windows NT 10.0; Win64; x64) AppleWebKit/537.36 (KHTML, like Gecko) draw.io/24.4.0 Chrome/120.0.6099.109 Electron/28.1.0 Safari/537.36" etag="Cm4w3ph-dZfohVxjllJJ" version="24.4.0" type="device">
  <diagram id="R2lEEEUBdFMjLlhIrx00" name="Page-1">
    <mxGraphModel dx="1050" dy="621" grid="1" gridSize="10" guides="1" tooltips="1" connect="1" arrows="1" fold="1" page="1" pageScale="1" pageWidth="3300" pageHeight="4681" math="0" shadow="0" extFonts="Permanent Marker^https://fonts.googleapis.com/css?family=Permanent+Marker">
      <root>
        <mxCell id="0" />
        <mxCell id="1" parent="0" />
        <mxCell id="6TVAVnuaZjavT5ibVuFq-6" style="rounded=0;orthogonalLoop=1;jettySize=auto;html=1;endArrow=none;endFill=0;" parent="1" source="6TVAVnuaZjavT5ibVuFq-1" target="6TVAVnuaZjavT5ibVuFq-71" edge="1">
          <mxGeometry relative="1" as="geometry">
            <mxPoint x="1470" y="2900" as="targetPoint" />
          </mxGeometry>
        </mxCell>
        <mxCell id="6TVAVnuaZjavT5ibVuFq-1" value="ASOCIACION" style="rounded=1;whiteSpace=wrap;html=1;" parent="1" vertex="1">
          <mxGeometry x="1090" y="2870" width="120" height="60" as="geometry" />
        </mxCell>
        <mxCell id="6TVAVnuaZjavT5ibVuFq-2" value="USUARIO" style="rounded=1;whiteSpace=wrap;html=1;" parent="1" vertex="1">
          <mxGeometry x="1840" y="2870" width="120" height="60" as="geometry" />
        </mxCell>
        <mxCell id="6TVAVnuaZjavT5ibVuFq-3" value="FAQ" style="rounded=1;whiteSpace=wrap;html=1;" parent="1" vertex="1">
          <mxGeometry x="970" y="3070" width="120" height="60" as="geometry" />
        </mxCell>
        <mxCell id="6TVAVnuaZjavT5ibVuFq-4" value="BLOGS" style="rounded=1;whiteSpace=wrap;html=1;" parent="1" vertex="1">
          <mxGeometry x="1210" y="3070" width="120" height="60" as="geometry" />
        </mxCell>
        <mxCell id="6TVAVnuaZjavT5ibVuFq-7" style="rounded=0;orthogonalLoop=1;jettySize=auto;html=1;endArrow=none;endFill=0;" parent="1" source="6TVAVnuaZjavT5ibVuFq-2" target="6TVAVnuaZjavT5ibVuFq-71" edge="1">
          <mxGeometry relative="1" as="geometry">
            <mxPoint x="1220" y="2910" as="sourcePoint" />
            <mxPoint x="1590" y="2900" as="targetPoint" />
          </mxGeometry>
        </mxCell>
        <mxCell id="6TVAVnuaZjavT5ibVuFq-9" value="1" style="text;html=1;align=center;verticalAlign=middle;resizable=0;points=[];autosize=1;strokeColor=none;fillColor=none;" parent="1" vertex="1">
          <mxGeometry x="1210" y="2870" width="30" height="30" as="geometry" />
        </mxCell>
        <mxCell id="6TVAVnuaZjavT5ibVuFq-10" value="N" style="text;html=1;align=center;verticalAlign=middle;resizable=0;points=[];autosize=1;strokeColor=none;fillColor=none;" parent="1" vertex="1">
          <mxGeometry x="1450" y="2870" width="30" height="30" as="geometry" />
        </mxCell>
        <mxCell id="6TVAVnuaZjavT5ibVuFq-11" value="N" style="text;html=1;align=center;verticalAlign=middle;resizable=0;points=[];autosize=1;strokeColor=none;fillColor=none;" parent="1" vertex="1">
          <mxGeometry x="1580" y="2870" width="30" height="30" as="geometry" />
        </mxCell>
        <mxCell id="6TVAVnuaZjavT5ibVuFq-12" value="1" style="text;html=1;align=center;verticalAlign=middle;resizable=0;points=[];autosize=1;strokeColor=none;fillColor=none;" parent="1" vertex="1">
          <mxGeometry x="1810" y="2870" width="30" height="30" as="geometry" />
        </mxCell>
        <mxCell id="6TVAVnuaZjavT5ibVuFq-13" style="rounded=0;orthogonalLoop=1;jettySize=auto;html=1;endArrow=none;endFill=0;" parent="1" source="6TVAVnuaZjavT5ibVuFq-1" target="6TVAVnuaZjavT5ibVuFq-4" edge="1">
          <mxGeometry relative="1" as="geometry">
            <mxPoint x="1220" y="2910" as="sourcePoint" />
            <mxPoint x="1480" y="2910" as="targetPoint" />
          </mxGeometry>
        </mxCell>
        <mxCell id="6TVAVnuaZjavT5ibVuFq-14" style="rounded=0;orthogonalLoop=1;jettySize=auto;html=1;endArrow=none;endFill=0;" parent="1" source="6TVAVnuaZjavT5ibVuFq-1" target="6TVAVnuaZjavT5ibVuFq-3" edge="1">
          <mxGeometry relative="1" as="geometry">
            <mxPoint x="1050" y="2940" as="sourcePoint" />
            <mxPoint x="1176" y="3080" as="targetPoint" />
          </mxGeometry>
        </mxCell>
        <mxCell id="6TVAVnuaZjavT5ibVuFq-15" value="1" style="text;html=1;align=center;verticalAlign=middle;resizable=0;points=[];autosize=1;strokeColor=none;fillColor=none;" parent="1" vertex="1">
          <mxGeometry x="1180" y="2930" width="30" height="30" as="geometry" />
        </mxCell>
        <mxCell id="6TVAVnuaZjavT5ibVuFq-16" value="1" style="text;html=1;align=center;verticalAlign=middle;resizable=0;points=[];autosize=1;strokeColor=none;fillColor=none;" parent="1" vertex="1">
          <mxGeometry x="1090" y="2930" width="30" height="30" as="geometry" />
        </mxCell>
        <mxCell id="6TVAVnuaZjavT5ibVuFq-17" value="N" style="text;html=1;align=center;verticalAlign=middle;resizable=0;points=[];autosize=1;strokeColor=none;fillColor=none;" parent="1" vertex="1">
          <mxGeometry x="1250" y="3040" width="30" height="30" as="geometry" />
        </mxCell>
        <mxCell id="6TVAVnuaZjavT5ibVuFq-18" value="N" style="text;html=1;align=center;verticalAlign=middle;resizable=0;points=[];autosize=1;strokeColor=none;fillColor=none;" parent="1" vertex="1">
          <mxGeometry x="1020" y="3040" width="30" height="30" as="geometry" />
        </mxCell>
        <mxCell id="6TVAVnuaZjavT5ibVuFq-19" value="ROL" style="rounded=1;whiteSpace=wrap;html=1;" parent="1" vertex="1">
          <mxGeometry x="1475" y="2500" width="120" height="60" as="geometry" />
        </mxCell>
        <mxCell id="6TVAVnuaZjavT5ibVuFq-20" value="PERMISO" style="rounded=1;whiteSpace=wrap;html=1;" parent="1" vertex="1">
          <mxGeometry x="1095" y="2500" width="120" height="60" as="geometry" />
        </mxCell>
        <mxCell id="6TVAVnuaZjavT5ibVuFq-21" value="COMENTARIO" style="rounded=1;whiteSpace=wrap;html=1;" parent="1" vertex="1">
          <mxGeometry x="1370" y="3220" width="120" height="60" as="geometry" />
        </mxCell>
        <mxCell id="6TVAVnuaZjavT5ibVuFq-22" style="rounded=0;orthogonalLoop=1;jettySize=auto;html=1;endArrow=none;endFill=0;" parent="1" source="6TVAVnuaZjavT5ibVuFq-4" target="6TVAVnuaZjavT5ibVuFq-21" edge="1">
          <mxGeometry relative="1" as="geometry">
            <mxPoint x="1460" y="3090" as="sourcePoint" />
            <mxPoint x="1544" y="3230" as="targetPoint" />
          </mxGeometry>
        </mxCell>
        <mxCell id="6TVAVnuaZjavT5ibVuFq-23" value="1" style="text;html=1;align=center;verticalAlign=middle;resizable=0;points=[];autosize=1;strokeColor=none;fillColor=none;" parent="1" vertex="1">
          <mxGeometry x="1330" y="3120" width="30" height="30" as="geometry" />
        </mxCell>
        <mxCell id="6TVAVnuaZjavT5ibVuFq-24" value="N" style="text;html=1;align=center;verticalAlign=middle;resizable=0;points=[];autosize=1;strokeColor=none;fillColor=none;" parent="1" vertex="1">
          <mxGeometry x="1390" y="3190" width="30" height="30" as="geometry" />
        </mxCell>
        <mxCell id="6TVAVnuaZjavT5ibVuFq-29" style="rounded=0;orthogonalLoop=1;jettySize=auto;html=1;endArrow=none;endFill=0;" parent="1" source="6TVAVnuaZjavT5ibVuFq-71" target="6TVAVnuaZjavT5ibVuFq-21" edge="1">
          <mxGeometry relative="1" as="geometry">
            <mxPoint x="1521.4285714285716" y="2930" as="sourcePoint" />
            <mxPoint x="1580" y="3130" as="targetPoint" />
          </mxGeometry>
        </mxCell>
        <mxCell id="6TVAVnuaZjavT5ibVuFq-30" value="1" style="text;html=1;align=center;verticalAlign=middle;resizable=0;points=[];autosize=1;strokeColor=none;fillColor=none;" parent="1" vertex="1">
          <mxGeometry x="1515" y="2950" width="30" height="30" as="geometry" />
        </mxCell>
        <mxCell id="6TVAVnuaZjavT5ibVuFq-31" value="N" style="text;html=1;align=center;verticalAlign=middle;resizable=0;points=[];autosize=1;strokeColor=none;fillColor=none;" parent="1" vertex="1">
          <mxGeometry x="1450" y="3190" width="30" height="30" as="geometry" />
        </mxCell>
        <mxCell id="6TVAVnuaZjavT5ibVuFq-32" value="TOPIC" style="rounded=1;whiteSpace=wrap;html=1;" parent="1" vertex="1">
          <mxGeometry x="2210" y="2870" width="120" height="60" as="geometry" />
        </mxCell>
        <mxCell id="6TVAVnuaZjavT5ibVuFq-40" value="POST" style="rounded=1;whiteSpace=wrap;html=1;" parent="1" vertex="1">
          <mxGeometry x="2210" y="3070" width="120" height="60" as="geometry" />
        </mxCell>
        <mxCell id="6TVAVnuaZjavT5ibVuFq-41" value="COMENTARIO" style="rounded=1;whiteSpace=wrap;html=1;" parent="1" vertex="1">
          <mxGeometry x="1840" y="3070" width="120" height="60" as="geometry" />
        </mxCell>
        <mxCell id="6TVAVnuaZjavT5ibVuFq-43" style="rounded=0;orthogonalLoop=1;jettySize=auto;html=1;endArrow=none;endFill=0;" parent="1" source="6TVAVnuaZjavT5ibVuFq-32" target="6TVAVnuaZjavT5ibVuFq-40" edge="1">
          <mxGeometry relative="1" as="geometry">
            <mxPoint x="2220" y="2910" as="sourcePoint" />
            <mxPoint x="2030" y="2910" as="targetPoint" />
          </mxGeometry>
        </mxCell>
        <mxCell id="6TVAVnuaZjavT5ibVuFq-44" style="rounded=0;orthogonalLoop=1;jettySize=auto;html=1;endArrow=none;endFill=0;" parent="1" source="6TVAVnuaZjavT5ibVuFq-40" target="6TVAVnuaZjavT5ibVuFq-41" edge="1">
          <mxGeometry relative="1" as="geometry">
            <mxPoint x="2144" y="3010" as="sourcePoint" />
            <mxPoint x="2130" y="3130" as="targetPoint" />
          </mxGeometry>
        </mxCell>
        <mxCell id="6TVAVnuaZjavT5ibVuFq-45" style="rounded=0;orthogonalLoop=1;jettySize=auto;html=1;endArrow=none;endFill=0;" parent="1" source="6TVAVnuaZjavT5ibVuFq-32" target="6TVAVnuaZjavT5ibVuFq-2" edge="1">
          <mxGeometry relative="1" as="geometry">
            <mxPoint x="2240" y="2780" as="sourcePoint" />
            <mxPoint x="1990" y="2780" as="targetPoint" />
          </mxGeometry>
        </mxCell>
        <mxCell id="6TVAVnuaZjavT5ibVuFq-46" value="1" style="text;html=1;align=center;verticalAlign=middle;resizable=0;points=[];autosize=1;strokeColor=none;fillColor=none;" parent="1" vertex="1">
          <mxGeometry x="1960" y="2870" width="30" height="30" as="geometry" />
        </mxCell>
        <mxCell id="6TVAVnuaZjavT5ibVuFq-47" value="N" style="text;html=1;align=center;verticalAlign=middle;resizable=0;points=[];autosize=1;strokeColor=none;fillColor=none;" parent="1" vertex="1">
          <mxGeometry x="2180" y="2870" width="30" height="30" as="geometry" />
        </mxCell>
        <mxCell id="6TVAVnuaZjavT5ibVuFq-48" value="1" style="text;html=1;align=center;verticalAlign=middle;resizable=0;points=[];autosize=1;strokeColor=none;fillColor=none;" parent="1" vertex="1">
          <mxGeometry x="2240" y="2930" width="30" height="30" as="geometry" />
        </mxCell>
        <mxCell id="6TVAVnuaZjavT5ibVuFq-49" value="N" style="text;html=1;align=center;verticalAlign=middle;resizable=0;points=[];autosize=1;strokeColor=none;fillColor=none;" parent="1" vertex="1">
          <mxGeometry x="2240" y="3040" width="30" height="30" as="geometry" />
        </mxCell>
        <mxCell id="6TVAVnuaZjavT5ibVuFq-50" value="1" style="text;html=1;align=center;verticalAlign=middle;resizable=0;points=[];autosize=1;strokeColor=none;fillColor=none;" parent="1" vertex="1">
          <mxGeometry x="2180" y="3070" width="30" height="30" as="geometry" />
        </mxCell>
        <mxCell id="6TVAVnuaZjavT5ibVuFq-51" value="N" style="text;html=1;align=center;verticalAlign=middle;resizable=0;points=[];autosize=1;strokeColor=none;fillColor=none;" parent="1" vertex="1">
          <mxGeometry x="1960" y="3070" width="30" height="30" as="geometry" />
        </mxCell>
        <mxCell id="6TVAVnuaZjavT5ibVuFq-52" style="rounded=0;orthogonalLoop=1;jettySize=auto;html=1;endArrow=none;endFill=0;" parent="1" source="6TVAVnuaZjavT5ibVuFq-41" target="6TVAVnuaZjavT5ibVuFq-2" edge="1">
          <mxGeometry relative="1" as="geometry">
            <mxPoint x="2100" y="3000" as="sourcePoint" />
            <mxPoint x="1850" y="3000" as="targetPoint" />
          </mxGeometry>
        </mxCell>
        <mxCell id="6TVAVnuaZjavT5ibVuFq-53" value="1" style="text;html=1;align=center;verticalAlign=middle;resizable=0;points=[];autosize=1;strokeColor=none;fillColor=none;" parent="1" vertex="1">
          <mxGeometry x="1900" y="2930" width="30" height="30" as="geometry" />
        </mxCell>
        <mxCell id="6TVAVnuaZjavT5ibVuFq-54" value="N" style="text;html=1;align=center;verticalAlign=middle;resizable=0;points=[];autosize=1;strokeColor=none;fillColor=none;" parent="1" vertex="1">
          <mxGeometry x="1900" y="3040" width="30" height="30" as="geometry" />
        </mxCell>
        <mxCell id="6TVAVnuaZjavT5ibVuFq-55" style="rounded=0;orthogonalLoop=1;jettySize=auto;html=1;endArrow=none;endFill=0;" parent="1" source="6TVAVnuaZjavT5ibVuFq-40" target="6TVAVnuaZjavT5ibVuFq-2" edge="1">
          <mxGeometry relative="1" as="geometry">
            <mxPoint x="2210" y="2980" as="sourcePoint" />
            <mxPoint x="1960" y="2980" as="targetPoint" />
          </mxGeometry>
        </mxCell>
        <mxCell id="6TVAVnuaZjavT5ibVuFq-56" value="1" style="text;html=1;align=center;verticalAlign=middle;resizable=0;points=[];autosize=1;strokeColor=none;fillColor=none;" parent="1" vertex="1">
          <mxGeometry x="1960" y="2910" width="30" height="30" as="geometry" />
        </mxCell>
        <mxCell id="6TVAVnuaZjavT5ibVuFq-57" value="N" style="text;html=1;align=center;verticalAlign=middle;resizable=0;points=[];autosize=1;strokeColor=none;fillColor=none;" parent="1" vertex="1">
          <mxGeometry x="2210" y="3040" width="30" height="30" as="geometry" />
        </mxCell>
        <mxCell id="6TVAVnuaZjavT5ibVuFq-59" style="rounded=0;orthogonalLoop=1;jettySize=auto;html=1;endArrow=none;endFill=0;" parent="1" source="6TVAVnuaZjavT5ibVuFq-19" target="6TVAVnuaZjavT5ibVuFq-20" edge="1">
          <mxGeometry relative="1" as="geometry">
            <mxPoint x="1334.43" y="2500" as="sourcePoint" />
            <mxPoint x="1334.43" y="2630" as="targetPoint" />
          </mxGeometry>
        </mxCell>
        <mxCell id="6TVAVnuaZjavT5ibVuFq-60" value="1" style="text;html=1;align=center;verticalAlign=middle;resizable=0;points=[];autosize=1;strokeColor=none;fillColor=none;" parent="1" vertex="1">
          <mxGeometry x="1500" y="2820" width="30" height="30" as="geometry" />
        </mxCell>
        <mxCell id="6TVAVnuaZjavT5ibVuFq-61" value="N" style="text;html=1;align=center;verticalAlign=middle;resizable=0;points=[];autosize=1;strokeColor=none;fillColor=none;" parent="1" vertex="1">
          <mxGeometry x="1505" y="2560" width="30" height="30" as="geometry" />
        </mxCell>
        <mxCell id="6TVAVnuaZjavT5ibVuFq-62" value="1" style="text;html=1;align=center;verticalAlign=middle;resizable=0;points=[];autosize=1;strokeColor=none;fillColor=none;" parent="1" vertex="1">
          <mxGeometry x="1215" y="2500" width="30" height="30" as="geometry" />
        </mxCell>
        <mxCell id="6TVAVnuaZjavT5ibVuFq-63" value="N" style="text;html=1;align=center;verticalAlign=middle;resizable=0;points=[];autosize=1;strokeColor=none;fillColor=none;" parent="1" vertex="1">
          <mxGeometry x="1440" y="2500" width="30" height="30" as="geometry" />
        </mxCell>
        <mxCell id="6TVAVnuaZjavT5ibVuFq-66" value="EVENTO" style="rounded=1;whiteSpace=wrap;html=1;" parent="1" vertex="1">
          <mxGeometry x="1090" y="2630" width="120" height="60" as="geometry" />
        </mxCell>
        <mxCell id="6TVAVnuaZjavT5ibVuFq-67" style="rounded=0;orthogonalLoop=1;jettySize=auto;html=1;endArrow=none;endFill=0;" parent="1" source="6TVAVnuaZjavT5ibVuFq-1" target="6TVAVnuaZjavT5ibVuFq-66" edge="1">
          <mxGeometry relative="1" as="geometry">
            <mxPoint x="970" y="2890" as="sourcePoint" />
            <mxPoint x="886" y="3030" as="targetPoint" />
          </mxGeometry>
        </mxCell>
        <mxCell id="6TVAVnuaZjavT5ibVuFq-68" value="1" style="text;html=1;align=center;verticalAlign=middle;resizable=0;points=[];autosize=1;strokeColor=none;fillColor=none;" parent="1" vertex="1">
          <mxGeometry x="1150" y="2840" width="30" height="30" as="geometry" />
        </mxCell>
        <mxCell id="6TVAVnuaZjavT5ibVuFq-69" value="N" style="text;html=1;align=center;verticalAlign=middle;resizable=0;points=[];autosize=1;strokeColor=none;fillColor=none;" parent="1" vertex="1">
          <mxGeometry x="1150" y="2690" width="30" height="30" as="geometry" />
        </mxCell>
        <mxCell id="6TVAVnuaZjavT5ibVuFq-71" value="MIEMBRO" style="rhombus;whiteSpace=wrap;html=1;" parent="1" vertex="1">
          <mxGeometry x="1480" y="2850" width="100" height="100" as="geometry" />
        </mxCell>
        <mxCell id="6TVAVnuaZjavT5ibVuFq-72" value="ASISTIR" style="rhombus;whiteSpace=wrap;html=1;" parent="1" vertex="1">
          <mxGeometry x="1330" y="2710" width="100" height="100" as="geometry" />
        </mxCell>
        <mxCell id="6TVAVnuaZjavT5ibVuFq-73" style="rounded=0;orthogonalLoop=1;jettySize=auto;html=1;endArrow=none;endFill=0;" parent="1" source="6TVAVnuaZjavT5ibVuFq-72" target="6TVAVnuaZjavT5ibVuFq-66" edge="1">
          <mxGeometry relative="1" as="geometry">
            <mxPoint x="1269.71" y="2795" as="sourcePoint" />
            <mxPoint x="1269.71" y="2615" as="targetPoint" />
          </mxGeometry>
        </mxCell>
        <mxCell id="6TVAVnuaZjavT5ibVuFq-74" style="rounded=0;orthogonalLoop=1;jettySize=auto;html=1;endArrow=none;endFill=0;" parent="1" source="6TVAVnuaZjavT5ibVuFq-71" target="6TVAVnuaZjavT5ibVuFq-72" edge="1">
          <mxGeometry relative="1" as="geometry">
            <mxPoint x="1355" y="2755" as="sourcePoint" />
            <mxPoint x="1220" y="2696" as="targetPoint" />
          </mxGeometry>
        </mxCell>
        <mxCell id="6TVAVnuaZjavT5ibVuFq-75" value="1" style="text;html=1;align=center;verticalAlign=middle;resizable=0;points=[];autosize=1;strokeColor=none;fillColor=none;" parent="1" vertex="1">
          <mxGeometry x="1210" y="2660" width="30" height="30" as="geometry" />
        </mxCell>
        <mxCell id="6TVAVnuaZjavT5ibVuFq-76" value="N" style="text;html=1;align=center;verticalAlign=middle;resizable=0;points=[];autosize=1;strokeColor=none;fillColor=none;" parent="1" vertex="1">
          <mxGeometry x="1330" y="2710" width="30" height="30" as="geometry" />
        </mxCell>
        <mxCell id="6TVAVnuaZjavT5ibVuFq-77" value="N" style="text;html=1;align=center;verticalAlign=middle;resizable=0;points=[];autosize=1;strokeColor=none;fillColor=none;" parent="1" vertex="1">
          <mxGeometry x="1415" y="2770" width="30" height="30" as="geometry" />
        </mxCell>
        <mxCell id="6TVAVnuaZjavT5ibVuFq-78" value="1" style="text;html=1;align=center;verticalAlign=middle;resizable=0;points=[];autosize=1;strokeColor=none;fillColor=none;" parent="1" vertex="1">
          <mxGeometry x="1485" y="2840" width="30" height="30" as="geometry" />
        </mxCell>
        <mxCell id="3CW6DmZ7XzqeSMqKbyhW-1" value="MIEMBRO_ROL" style="rhombus;whiteSpace=wrap;html=1;" parent="1" vertex="1">
          <mxGeometry x="1485" y="2640" width="100" height="100" as="geometry" />
        </mxCell>
      </root>
    </mxGraphModel>
  </diagram>
</mxfile>
